# xmcd CD database file
#
# Track frame offsets:
#	150
#	18450
#	29025
#	41922
#	56322
#	74547
#	84972
#	99597
#	117897
#	133722
#	152847
#	168233
#
# Disc length: 2536 seconds
#
# Revision: 0
# Processed by: cddbd v1.5.1PL2 Copyright (c) Steve Scherf et al.
# Submitted via: CDex 1.51
#
DISCID=9e09e60c
DTITLE=Valleri Sauro - Introspective
DYEAR=2005
DGENRE=New Age
TTITLE0=Sunrise Remembered
TTITLE1=Childhood Friend
TTITLE2=Yearning
TTITLE3=Schoolyard Games
TTITLE4=Horses Running Free
TTITLE5=Christmas Morning
TTITLE6=Beautiful Soul
TTITLE7=Searching
TTITLE8=Playful
TTITLE9=Mountain Sunset
TTITLE10=Woodland Glade
TTITLE11=Regrets
EXTD=YEAR: 2005
EXTT0=
EXTT1=
EXTT2=
EXTT3=
EXTT4=
EXTT5=
EXTT6=
EXTT7=
EXTT8=
EXTT9=
EXTT10=
EXTT11=
PLAYORDER=
